<?xml version="1.0" encoding="UTF-8"?>
<svg width="200" height="200" viewBox="0 0 200 200" xmlns="http://www.w3.org/2000/svg">
  <!-- Body -->
  <ellipse cx="100" cy="100" rx="70" ry="50" fill="#FF4500"/>

  <!-- Wings -->
  <path d="M40 80 Q20 40 40 20 Q60 40 40 80" fill="#FF8C00"/>
  <path d="M160 80 Q180 40 160 20 Q140 40 160 80" fill="#FF8C00"/>

  <!-- Head -->
  <path d="M100 50 Q130 30 150 50 Q130 70 100 50" fill="#FF4500"/>

  <!-- Horns -->
  <path d="M120 40 L130 20 L140 40" fill="#FF4500"/>
  <path d="M80 40 L70 20 L60 40" fill="#FF4500"/>

  <!-- Eyes -->
  <circle cx="130" cy="45" r="5" fill="#000000"/>
  <circle cx="70" cy="45" r="5" fill="#000000"/>

  <!-- Mouth -->
  <path d="M90 60 Q100 70 110 60" stroke="#000000" fill="none" stroke-width="2"/>

  <!-- Tail -->
  <path d="M170 100 Q190 80 200 100 Q190 120 170 100" fill="#FF4500"/>
  <path d="M170 100 Q190 80 200 100 Q190 120 170 100" fill="none" stroke="#000000" stroke-width="2"/>

  <!-- Tail Flame -->
  <path d="M200 100 Q210 90 220 100 Q210 110 200 100" fill="#FF0000"/>
  <path d="M210 100 Q220 95 230 100 Q220 105 210 100" fill="#FF4500"/>
  <path d="M220 100 Q230 98 240 100 Q230 102 220 100" fill="#FFD700"/>
</svg>