<?xml version="1.0" encoding="UTF-8"?>
<svg width="200" height="200" viewBox="0 0 200 200" xmlns="http://www.w3.org/2000/svg">
  <!-- Body -->
  <ellipse cx="100" cy="100" rx="60" ry="50" fill="#FFD700"/>
  
  <!-- Ears -->
  <path d="M60 60 L40 20 L80 40 Z" fill="#FFD700"/>
  <path d="M140 60 L160 20 L120 40 Z" fill="#FFD700"/>
  
  <!-- Inner Ears -->
  <path d="M60 60 L45 30 L75 45 Z" fill="#FF0000"/>
  <path d="M140 60 L155 30 L125 45 Z" fill="#FF0000"/>
  
  <!-- Cheeks -->
  <circle cx="70" cy="90" r="15" fill="#FF0000" opacity="0.5"/>
  <circle cx="130" cy="90" r="15" fill="#FF0000" opacity="0.5"/>
  
  <!-- Eyes -->
  <circle cx="80" cy="80" r="8" fill="#000000"/>
  <circle cx="120" cy="80" r="8" fill="#000000"/>
  
  <!-- Nose -->
  <circle cx="100" cy="95" r="5" fill="#000000"/>
  
  <!-- Mouth -->
  <path d="M90 105 Q100 115 110 105" stroke="#000000" fill="none" stroke-width="2"/>
  
  <!-- Tail -->
  <path d="M160 100 Q180 80 190 100 Q180 120 160 100" fill="#FFD700"/>
  <path d="M160 100 Q180 80 190 100 Q180 120 160 100" fill="none" stroke="#000000" stroke-width="2"/>
</svg> 